<svg width="518" height="296" viewBox="0 0 518 296" fill="none" xmlns="http://www.w3.org/2000/svg">
<g clip-path="url(#clip0_129_2)">
<path d="M65.177 138V125.328H79.001V71.056H65.817V58.256H107.033V71.056H93.209V125.328H107.545V138H65.177ZM120.882 138V78.096H135.986V85.904C137.181 84.0267 138.461 82.4053 139.826 81.04C141.277 79.6747 142.898 78.608 144.69 77.84C146.482 77.072 148.445 76.688 150.578 76.688C153.735 76.688 156.637 77.4987 159.282 79.12C162.013 80.656 164.189 83.216 165.81 86.8C167.431 90.384 168.242 95.248 168.242 101.392V138H153.266V101.52C153.266 98.5333 153.01 96.1013 152.498 94.224C151.986 92.3467 151.218 90.9813 150.194 90.128C149.17 89.1893 147.89 88.72 146.354 88.72C144.989 88.72 143.666 89.0187 142.386 89.616C141.191 90.2133 140.082 91.1093 139.058 92.304C138.119 93.4133 137.351 94.8213 136.754 96.528C136.242 98.1493 135.986 100.027 135.986 102.16V138H120.882ZM184.779 103.44V90.768H218.827V103.44H184.779ZM262.628 139.536C258.617 139.536 254.863 138.811 251.364 137.36C247.951 135.909 244.964 133.861 242.404 131.216C239.929 128.485 238.009 125.243 236.644 121.488C235.279 117.648 234.596 113.339 234.596 108.56C234.596 103.867 235.279 99.5573 236.644 95.632C238.095 91.7067 240.057 88.336 242.532 85.52C245.092 82.704 248.079 80.528 251.492 78.992C254.905 77.456 258.575 76.688 262.5 76.688C267.62 76.688 272.057 77.6693 275.812 79.632C279.567 81.5093 282.511 84.1973 284.644 87.696L276.964 97.424L276.324 98.32L275.3 97.68C275.215 96.9973 275.087 96.272 274.916 95.504C274.831 94.736 274.361 93.84 273.508 92.816C272.143 91.4507 270.607 90.5547 268.9 90.128C267.279 89.616 265.401 89.36 263.268 89.36C261.476 89.36 259.769 89.744 258.148 90.512C256.527 91.28 255.076 92.4747 253.796 94.096C252.516 95.632 251.492 97.6373 250.724 100.112C250.041 102.501 249.7 105.36 249.7 108.688C249.7 111.675 250.041 114.363 250.724 116.752C251.492 119.056 252.516 120.976 253.796 122.512C255.076 123.963 256.527 125.072 258.148 125.84C259.769 126.608 261.476 126.992 263.268 126.992C264.889 126.992 266.425 126.779 267.876 126.352C269.412 125.925 270.905 125.243 272.356 124.304C273.807 123.28 275.172 121.915 276.452 120.208L284.132 130.32C281.316 133.563 277.988 135.909 274.148 137.36C270.308 138.811 266.468 139.536 262.628 139.536ZM316.925 139.408C311.976 139.408 307.538 138.213 303.613 135.824C299.688 133.349 296.573 129.765 294.269 125.072C291.965 120.379 290.813 114.747 290.813 108.176C290.813 101.776 291.965 96.2293 294.269 91.536C296.573 86.7573 299.688 83.088 303.613 80.528C307.538 77.968 311.976 76.688 316.925 76.688C321.789 76.688 326.184 77.968 330.109 80.528C334.034 83.088 337.149 86.7573 339.453 91.536C341.842 96.2293 343.037 101.776 343.037 108.176C343.037 114.747 341.842 120.379 339.453 125.072C337.149 129.68 334.034 133.221 330.109 135.696C326.184 138.171 321.789 139.408 316.925 139.408ZM316.925 126.864C319.144 126.864 321.064 126.139 322.685 124.688C324.392 123.152 325.714 120.976 326.653 118.16C327.592 115.344 328.061 112.016 328.061 108.176C328.061 103.995 327.592 100.539 326.653 97.808C325.714 94.992 324.392 92.8587 322.685 91.408C321.064 89.9573 319.144 89.232 316.925 89.232C314.792 89.232 312.872 89.9573 311.165 91.408C309.458 92.8587 308.136 94.992 307.197 97.808C306.258 100.539 305.789 103.995 305.789 108.176C305.789 112.016 306.258 115.344 307.197 118.16C308.136 120.976 309.416 123.152 311.037 124.688C312.744 126.139 314.706 126.864 316.925 126.864ZM351.382 138V78.096H366.486V85.904C367.681 84.0267 368.961 82.4053 370.326 81.04C371.777 79.6747 373.398 78.608 375.19 77.84C376.982 77.072 378.945 76.688 381.078 76.688C384.235 76.688 387.137 77.4987 389.782 79.12C392.513 80.656 394.689 83.216 396.31 86.8C397.931 90.384 398.742 95.248 398.742 101.392V138H383.766V101.52C383.766 98.5333 383.51 96.1013 382.998 94.224C382.486 92.3467 381.718 90.9813 380.694 90.128C379.67 89.1893 378.39 88.72 376.854 88.72C375.489 88.72 374.166 89.0187 372.886 89.616C371.691 90.2133 370.582 91.1093 369.558 92.304C368.619 93.4133 367.851 94.8213 367.254 96.528C366.742 98.1493 366.486 100.027 366.486 102.16V138H351.382ZM433.071 139.408C429.743 139.408 426.543 139.109 423.471 138.512C420.399 137.915 417.583 137.019 415.023 135.824C412.463 134.544 410.159 132.923 408.111 130.96L414.127 118.928L414.639 117.776L415.663 118.288C415.919 118.971 416.175 119.653 416.431 120.336C416.772 121.019 417.455 121.787 418.479 122.64C420.442 124.176 422.575 125.371 424.879 126.224C427.268 126.992 429.999 127.376 433.071 127.376C434.948 127.376 436.527 127.12 437.807 126.608C439.172 126.011 440.196 125.243 440.879 124.304C441.647 123.365 442.031 122.341 442.031 121.232C442.031 120.293 441.775 119.483 441.263 118.8C440.836 118.117 440.154 117.477 439.215 116.88C438.276 116.283 437.039 115.685 435.503 115.088C434.052 114.405 432.26 113.723 430.127 113.04C426.372 111.845 423.087 110.48 420.271 108.944C417.455 107.323 415.236 105.317 413.615 102.928C412.079 100.539 411.311 97.68 411.311 94.352C411.311 91.024 412.207 88.0373 413.999 85.392C415.791 82.7467 418.308 80.656 421.551 79.12C424.879 77.4987 428.719 76.688 433.071 76.688C435.29 76.688 437.423 76.9013 439.471 77.328C441.519 77.6693 443.439 78.1813 445.231 78.864C447.108 79.5467 448.858 80.4427 450.479 81.552C452.1 82.6613 453.594 83.9413 454.959 85.392L448.047 95.76L447.279 96.784L446.255 96.016C446.17 95.3333 445.956 94.6933 445.615 94.096C445.359 93.4987 444.719 92.7307 443.695 91.792C442.244 90.768 440.623 90.0427 438.831 89.616C437.124 89.104 435.332 88.848 433.455 88.848C431.066 88.848 428.975 89.3173 427.183 90.256C425.476 91.1093 424.623 92.432 424.623 94.224C424.623 95.3333 425.05 96.3147 425.903 97.168C426.842 98.0213 428.25 98.832 430.127 99.6C432.004 100.283 434.394 101.051 437.295 101.904C441.476 103.184 444.89 104.677 447.535 106.384C450.266 108.005 452.271 110.011 453.551 112.4C454.831 114.704 455.471 117.435 455.471 120.592C455.471 124.091 454.575 127.291 452.783 130.192C451.076 133.093 448.559 135.355 445.231 136.976C441.903 138.597 437.85 139.408 433.071 139.408ZM492.104 139.408C488.264 139.408 484.68 138.768 481.352 137.488C478.024 136.123 475.123 134.16 472.648 131.6C470.259 129.04 468.381 125.84 467.016 122C465.651 118.075 464.968 113.595 464.968 108.56C464.968 103.44 465.608 98.8747 466.888 94.864C468.253 90.8533 470.088 87.5253 472.392 84.88C474.696 82.2347 477.384 80.2293 480.456 78.864C483.613 77.4133 487.027 76.688 490.696 76.688C493.939 76.688 496.968 77.2853 499.784 78.48C502.685 79.6747 505.203 81.5093 507.336 83.984C509.469 86.4587 511.133 89.5733 512.328 93.328C513.523 97.0827 514.12 101.477 514.12 106.512C514.12 107.451 514.12 108.517 514.12 109.712C514.12 110.907 514.077 111.931 513.992 112.784H479.56C479.731 115.344 480.2 117.563 480.968 119.44C481.736 121.232 482.717 122.725 483.912 123.92C485.192 125.029 486.6 125.84 488.136 126.352C489.672 126.864 491.251 127.12 492.872 127.12C494.493 127.12 495.987 126.992 497.352 126.736C498.803 126.395 500.168 125.84 501.448 125.072C502.728 124.219 503.965 123.152 505.16 121.872L512.712 129.808C511.005 131.941 509.043 133.733 506.824 135.184C504.691 136.635 502.387 137.701 499.912 138.384C497.437 139.067 494.835 139.408 492.104 139.408ZM479.688 101.008H499.784C499.784 98.96 499.571 97.2107 499.144 95.76C498.717 94.224 498.077 92.944 497.224 91.92C496.456 90.896 495.475 90.1707 494.28 89.744C493.085 89.232 491.72 88.976 490.184 88.976C488.819 88.976 487.539 89.232 486.344 89.744C485.149 90.1707 484.083 90.896 483.144 91.92C482.291 92.8587 481.565 94.096 480.968 95.632C480.371 97.0827 479.944 98.8747 479.688 101.008Z" fill="#25006B"/>
<path d="M37.888 261.376V235.264C37.12 236.629 36.096 237.781 34.816 238.72C33.6213 239.659 32.256 240.341 30.72 240.768C29.184 241.195 27.5627 241.408 25.856 241.408C22.016 241.408 18.6453 240.683 15.744 239.232C12.8427 237.781 10.4107 235.733 8.448 233.088C6.48533 230.357 4.992 227.072 3.968 223.232C2.944 219.307 2.432 214.955 2.432 210.176C2.432 205.141 2.944 200.661 3.968 196.736C4.992 192.811 6.48533 189.525 8.448 186.88C10.4107 184.235 12.8427 182.229 15.744 180.864C18.7307 179.413 22.1013 178.688 25.856 178.688C27.3067 178.688 28.6293 178.859 29.824 179.2C31.104 179.456 32.256 179.883 33.28 180.48C34.304 180.992 35.2 181.717 35.968 182.656C36.8213 183.509 37.5893 184.491 38.272 185.6V180.096H52.864V261.376H37.888ZM28.544 229.504C29.9093 229.504 31.1467 229.163 32.256 228.48C33.4507 227.797 34.4747 226.688 35.328 225.152C36.1813 223.616 36.8213 221.568 37.248 219.008C37.76 216.448 38.016 213.333 38.016 209.664C38.016 205.995 37.76 202.965 37.248 200.576C36.8213 198.101 36.1387 196.139 35.2 194.688C34.3467 193.237 33.3227 192.213 32.128 191.616C30.9333 190.933 29.6533 190.592 28.288 190.592C26.752 190.592 25.3013 190.933 23.936 191.616C22.656 192.213 21.504 193.28 20.48 194.816C19.5413 196.267 18.7733 198.229 18.176 200.704C17.664 203.093 17.408 206.123 17.408 209.792C17.408 213.376 17.664 216.448 18.176 219.008C18.688 221.483 19.4133 223.488 20.352 225.024C21.376 226.56 22.5707 227.712 23.936 228.48C25.3013 229.163 26.8373 229.504 28.544 229.504ZM81.561 241.536C79.3423 241.536 77.2517 241.237 75.289 240.64C73.4117 240.043 71.705 239.104 70.169 237.824C68.633 236.544 67.3103 234.923 66.201 232.96C65.0917 230.912 64.2383 228.437 63.641 225.536C63.0437 222.635 62.745 219.307 62.745 215.552L62.873 180.096H77.849V215.936C77.849 218.411 77.977 220.501 78.233 222.208C78.5743 223.829 79.0437 225.152 79.641 226.176C80.3237 227.2 81.0917 227.925 81.945 228.352C82.7983 228.779 83.6943 228.992 84.633 228.992C86.169 228.992 87.4917 228.693 88.601 228.096C89.7957 227.499 90.8197 226.603 91.673 225.408C92.5263 224.128 93.1237 222.635 93.465 220.928C93.8917 219.136 94.105 217.045 94.105 214.656V180.096H109.209V230.528C109.209 232.405 109.252 234.112 109.337 235.648C109.422 237.099 109.764 238.549 110.361 240H96.665C96.3237 239.232 96.0677 238.507 95.897 237.824C95.7263 237.056 95.5983 236.288 95.513 235.52C95.513 234.667 95.513 233.813 95.513 232.96C94.745 234.411 93.849 235.648 92.825 236.672C91.801 237.696 90.6917 238.592 89.497 239.36C88.3023 240.043 87.0223 240.555 85.657 240.896C84.377 241.323 83.0117 241.536 81.561 241.536ZM146.354 241.408C142.514 241.408 138.93 240.768 135.602 239.488C132.274 238.123 129.373 236.16 126.898 233.6C124.509 231.04 122.631 227.84 121.266 224C119.901 220.075 119.218 215.595 119.218 210.56C119.218 205.44 119.858 200.875 121.138 196.864C122.503 192.853 124.338 189.525 126.642 186.88C128.946 184.235 131.634 182.229 134.706 180.864C137.863 179.413 141.277 178.688 144.946 178.688C148.189 178.688 151.218 179.285 154.034 180.48C156.935 181.675 159.453 183.509 161.586 185.984C163.719 188.459 165.383 191.573 166.578 195.328C167.773 199.083 168.37 203.477 168.37 208.512C168.37 209.451 168.37 210.517 168.37 211.712C168.37 212.907 168.327 213.931 168.242 214.784H133.81C133.981 217.344 134.45 219.563 135.218 221.44C135.986 223.232 136.967 224.725 138.162 225.92C139.442 227.029 140.85 227.84 142.386 228.352C143.922 228.864 145.501 229.12 147.122 229.12C148.743 229.12 150.237 228.992 151.602 228.736C153.053 228.395 154.418 227.84 155.698 227.072C156.978 226.219 158.215 225.152 159.41 223.872L166.962 231.808C165.255 233.941 163.293 235.733 161.074 237.184C158.941 238.635 156.637 239.701 154.162 240.384C151.687 241.067 149.085 241.408 146.354 241.408ZM133.938 203.008H154.034C154.034 200.96 153.821 199.211 153.394 197.76C152.967 196.224 152.327 194.944 151.474 193.92C150.706 192.896 149.725 192.171 148.53 191.744C147.335 191.232 145.97 190.976 144.434 190.976C143.069 190.976 141.789 191.232 140.594 191.744C139.399 192.171 138.333 192.896 137.394 193.92C136.541 194.859 135.815 196.096 135.218 197.632C134.621 199.083 134.194 200.875 133.938 203.008ZM178.507 240V180.096H193.611V187.904C194.806 186.027 196.086 184.405 197.451 183.04C198.902 181.675 200.523 180.608 202.315 179.84C204.107 179.072 206.07 178.688 208.203 178.688C211.36 178.688 214.262 179.499 216.907 181.12C219.638 182.656 221.814 185.216 223.435 188.8C225.056 192.384 225.867 197.248 225.867 203.392V240H210.891V203.52C210.891 200.533 210.635 198.101 210.123 196.224C209.611 194.347 208.843 192.981 207.819 192.128C206.795 191.189 205.515 190.72 203.979 190.72C202.614 190.72 201.291 191.019 200.011 191.616C198.816 192.213 197.707 193.109 196.683 194.304C195.744 195.413 194.976 196.821 194.379 198.528C193.867 200.149 193.611 202.027 193.611 204.16V240H178.507ZM242.404 205.44V192.768H276.452V205.44H242.404ZM322.685 241.408C319.613 241.408 316.882 240.896 314.493 239.872C312.104 238.848 310.098 237.141 308.477 234.752C306.941 232.363 305.789 229.12 305.021 225.024C304.338 220.843 304.082 215.595 304.253 209.28L305.789 166.4L321.277 164.352L322.557 164.224L322.685 165.504C322.258 166.101 321.874 166.699 321.533 167.296C321.277 167.893 321.106 168.917 321.021 170.368L319.741 188.672L320.253 189.696L319.357 208.896C319.101 214.187 319.272 218.325 319.869 221.312C320.466 224.213 321.32 226.219 322.429 227.328C323.624 228.437 324.989 228.992 326.525 228.992C328.914 228.992 331.048 228.523 332.925 227.584C334.888 226.56 336.637 225.408 338.173 224.128L340.861 235.264C338.301 237.227 335.485 238.763 332.413 239.872C329.426 240.896 326.184 241.408 322.685 241.408ZM294.269 180.608H336.893L336.765 192.896H294.141L294.269 180.608ZM354.71 240V227.712H367.766V192.384H355.222V180.096H382.742V227.712H394.646V240H354.71ZM374.55 170.496C371.99 170.496 369.814 169.643 368.022 167.936C366.23 166.144 365.334 164.053 365.334 161.664C365.334 159.019 366.187 156.885 367.894 155.264C369.601 153.557 371.819 152.704 374.55 152.704C377.025 152.704 379.201 153.6 381.078 155.392C382.955 157.099 383.894 159.189 383.894 161.664C383.894 164.053 382.955 166.144 381.078 167.936C379.201 169.643 377.025 170.496 374.55 170.496ZM425.647 241.536C419.759 241.536 415.151 239.957 411.823 236.8C408.58 233.557 406.959 229.419 406.959 224.384C406.959 221.056 407.599 218.027 408.879 215.296C410.159 212.565 412.079 210.219 414.639 208.256C417.199 206.293 420.399 204.8 424.239 203.776C428.164 202.667 432.687 202.112 437.807 202.112C438.319 202.112 438.959 202.155 439.727 202.24C440.58 202.24 441.476 202.283 442.415 202.368C443.439 202.368 444.378 202.411 445.231 202.496L445.615 213.376C444.932 213.291 444.079 213.248 443.055 213.248C442.031 213.163 441.007 213.12 439.983 213.12C438.959 213.12 438.106 213.12 437.423 213.12C434.351 213.12 431.791 213.376 429.743 213.888C427.78 214.315 426.202 214.955 425.007 215.808C423.898 216.576 423.087 217.515 422.575 218.624C422.148 219.733 421.935 220.928 421.935 222.208C421.935 223.403 422.106 224.469 422.447 225.408C422.788 226.347 423.258 227.115 423.855 227.712C424.538 228.224 425.306 228.651 426.159 228.992C427.012 229.248 427.951 229.376 428.975 229.376C431.023 229.376 432.772 228.992 434.223 228.224C435.674 227.456 436.868 226.261 437.807 224.64C438.831 222.933 439.556 220.8 439.983 218.24C440.495 215.68 440.751 212.523 440.751 208.768C440.751 203.819 440.367 200.064 439.599 197.504C438.831 194.859 437.679 193.067 436.143 192.128C434.607 191.189 432.687 190.72 430.383 190.72C427.994 190.72 425.775 191.104 423.727 191.872C421.679 192.64 419.588 194.176 417.455 196.48L409.135 187.52C412.292 184.448 415.748 182.229 419.503 180.864C423.343 179.413 427.268 178.688 431.279 178.688C434.692 178.688 437.85 179.115 440.751 179.968C443.738 180.736 446.34 182.144 448.559 184.192C450.778 186.155 452.484 188.885 453.679 192.384C454.959 195.797 455.599 200.192 455.599 205.568V240H440.367V234.496C439.428 235.776 438.447 236.885 437.423 237.824C436.399 238.677 435.247 239.403 433.967 240C432.772 240.512 431.492 240.896 430.127 241.152C428.762 241.408 427.268 241.536 425.647 241.536ZM467.528 240V227.584H482.376V166.4H468.168V154.112H497.48V227.584H512.2V240H467.528Z" fill="#762CFF"/>
</g>
<defs>
<clipPath id="clip0_129_2">
<rect width="518" height="296" fill="white"/>
</clipPath>
</defs>
</svg>
